<svg xmlns="http://www.w3.org/2000/svg" width="807" height="167" viewBox="0 0 807 167"><title>  Group 2</title><desc>  Created with Sketch.</desc><g fill="none"><g fill="#7B1829"><path d="M87.2 0.8C83.7 3.4 76.8 9.1 76.8 18.2 76.8 24 78.6 29.8 81.9 34.6 63.1 47 36.9 72.3 36.9 96.8 36.9 112.1 46.5 122.1 61.7 122.1 74.8 122.1 87.1 116.1 96.7 108L97.1 108.4C83.2 130.2 63.3 162.3 33.8 162.3 19.7 162.3 7 154.8 7 142.4 7 140.9 7 139.5 7.4 137.6 8.2 138 10.1 138.2 10.9 138.2 15.2 138.4 18.1 135.3 18.1 130.9 18.1 127 14.8 123.6 10.9 123.6 3.3 123.6 0 130.2 0 137.3 0 153.5 14.7 164.7 33.2 164.7 72.1 164.7 98.1 129.5 114.9 98.8 120.6 91.3 127.4 84.5 127.4 81.4 127.4 78.9 125.6 78.3 123.9 78.3 111.2 78.3 108.1 87.6 102.8 99 100.3 104.4 81.9 118.7 66.8 118.7 53.5 118.7 50 109.6 50 97.8 50 78.5 69.9 50.5 85.6 39.3 96 49.9 110.8 52.8 123.3 52.8 142.7 52.8 165.9 46.4 165.9 28.3 165.9 16.5 153.2 13.8 143.4 13.8 122.3 13.8 101.4 21.9 83.8 32.9 81.1 29.6 79.3 23.6 79.3 17.8 79.3 11 82.4 7.4 88.5 2L87.2 0.8 87.2 0.8ZM157.6 26.5C157.6 42.1 140.6 50.3 123.4 50.3 107.4 50.3 93.9 45.7 87.2 37.7 100.9 26.9 121.8 16.3 139.6 16.3 147 16.4 157.6 16.8 157.6 26.5L157.6 26.5Z"/><path d="M141.1 95.8C125.9 119.3 111.5 142.3 97.4 165.4L110.4 165.4C114.6 155.1 121 144.6 126.2 138.7 140.8 122.1 154.2 109.6 164.9 102.1L165.3 102.5C163.9 104.9 163.1 108.2 163.1 111.2 163.1 120.5 168.7 126.2 177.3 126.2 187.1 126.2 195.3 118.1 200.9 112.8L199.7 112C194.7 116.4 187.1 123.7 179.1 123.7 174.7 123.7 171.1 120.1 171.1 113.8 171.1 105.9 176.3 99.2 180.9 94.6 178.5 94.4 176.3 94.2 173.5 94.2 168.7 94.2 167.9 96 166.5 98.6 152.1 108.5 135.9 124.3 128.4 133.6L128 133.2 153.4 95.8 141.1 95.8 141.1 95.8Z"/><path d="M244 107.4L243.6 107.4C242.2 100.7 237.7 94.1 227.2 94.1 205.3 94.1 174.8 128.9 174.8 150.5 174.8 158.2 178.3 165.3 187.9 165.3 199.2 165.3 213.7 152 220.5 144.5L220.9 144.7C219.5 148.3 218.2 151.8 218.2 155.6 218.2 160.9 221.7 165.3 229.1 165.3 247.1 165.3 272.9 132.8 286.7 111.3L285.5 110.9C266.9 139.6 242.1 163 231.2 163 227.7 163 225.9 161.4 225.9 157.9 225.9 148.6 243.9 123.1 263 95.7L250.3 95.7 244 107.4 244 107.4ZM186.6 151.1C186.6 127.3 213.2 96.5 228.6 96.5 233.5 96.5 237.4 99.9 237.4 105.8 237.4 129.2 206.7 160.6 193.6 160.6 189.1 160.6 186.6 157.1 186.6 151.1L186.6 151.1Z"/><path d="M291.5 95.3C280.3 114.2 261.7 141.5 247.5 165.4L260.1 165.4C269.2 146.3 306.4 95.5 326.6 95.5 330.1 95.5 332.5 97.1 332.5 100.4 332.5 114 301.3 138.4 301.3 154.6 301.3 162.2 307 166.9 314.9 166.9 326.7 166.9 339.4 155.6 351.6 142.2 361.5 131.3 370.7 119 375.9 110.8L374.5 110C369.8 117.8 356.9 134.2 346.3 145.1 332.9 158.9 323.6 164.4 315.1 164.4 311.2 164.4 309.4 162.3 309.4 158.6 309.4 148.1 340.6 118.3 340.6 105 340.6 98 335.9 92.9 327.8 92.9 309.3 92.9 289.7 118.8 278.3 132.6L277.9 132.2 304.7 94.6 291.5 95.3 291.5 95.3Z"/><path d="M472.4 21.6L420.1 106 419.5 106C419.7 97.6 414.2 91.4 405.5 91.4 382.4 91.4 347.1 127.2 347.1 150.2 347.1 158.4 352.6 165.4 362.3 165.4 376.5 165.4 388.9 151 397.6 141.2L398 141.4C396 145.1 393.1 150.4 393.1 155.6 393.1 161.4 397.2 165.5 405.9 165.5 414.8 165.5 425.8 157.3 436.5 146.2 447.9 134.5 458.6 119.7 463.7 110.7L462.1 109.9C454.8 122 444.2 135.8 433.7 146.1 421.7 157.8 413.2 163.2 406.5 163.2 403.7 163.2 402 161.1 402 158.3 402 143.9 453.9 73.2 485.8 21.9L472.4 21.9 472.4 21.6ZM413.8 106.2C413.8 122.6 380.9 160.4 366.7 160.4 361 160.4 359.2 156.1 359.2 150.3 359.2 131.6 388.2 93.8 404.6 93.8 412.6 93.9 413.8 99.6 413.8 106.2L413.8 106.2Z"/><path d="M603.8 46.1C603.6 47.8 603.6 50 603.6 51.7 604 64.2 612.8 68.7 623.5 68.7 643.6 68.7 663.5 54.4 663.5 34.9 663.5 21.2 654.9 13.7 637.9 13.7 595.7 13.7 524 74.7 524 127.4 524 142.5 533.8 164.8 562.1 164.8 600 164.8 620.5 133.3 620.5 113.7 620.5 97.1 612.1 90.9 595.1 90.9L595.3 93.4C606.2 93.4 613.1 99.4 613.1 110.4 613.1 134.7 589.7 162.3 562.9 162.3 544.5 162.3 537.1 145.7 537.1 129.9 537.1 73 601.8 16.2 638.7 16.2 649.4 16.2 656.1 19.5 656.1 30.9 656.1 50 638.3 66.2 623.7 66.2 614.9 66.2 606.1 62.5 606.1 51 606.1 49.1 606.1 47.7 606.3 46L603.8 46 603.8 46.1Z"/><path d="M660.8 95.6C645.6 119.1 631.2 142.3 616.9 165.4L629.9 165.4C634.1 155.1 640.5 144.5 645.7 138.6 660.3 122 673.7 109.4 684.6 101.9L685 102.3C683.6 104.7 682.8 108 682.8 111 682.8 120.3 688.4 126 697 126 706.8 126 715 117.9 720.6 112.6L719.4 111.8C714.4 116.3 706.8 123.6 698.8 123.6 694.4 123.6 690.8 119.9 690.8 113.7 690.8 105.8 696 99.1 700.6 94.4 698.2 94.2 696 94 693.2 94 688.4 94 687.6 95.8 686.2 98.5 671.8 108.4 655.6 124.3 647.9 133.6L647.5 133.2 672.9 95.7 660.8 95.7 660.8 95.6Z"/><path d="M726.6 95.7C705.5 126.2 691 142.4 691 155.7 691 160.8 694.5 165.4 702.7 165.4 714.6 165.4 727.3 154.1 738.5 141.5L738.9 141.9C738.1 143.1 735.8 149 735.8 154.2 735.8 160.9 740.5 165.5 747.7 165.5 767.2 165.5 796.7 125.5 806.1 112.3L804.1 111.7C795.3 124.6 764.8 163.2 748.8 163.2 745.5 163.2 743.5 160.6 743.5 157.5 743.5 148.8 753.5 134.9 781.8 96L768.3 96 751.1 122.5C745.6 131 720.8 162.5 706 162.5 702.7 162.5 700.3 160.5 700.3 156.4 700.3 147.5 719.1 124.1 739.4 96L726.6 96 726.6 95.7Z"/></g></g></svg>